<svg id="THU_Logo_Subline_deutsch_CMYK" xmlns="http://www.w3.org/2000/svg" viewBox="0 0 669.82 347.39"><defs><style>.cls-1{fill:#0055a3;}.cls-2{fill:#1d1d1b;}</style></defs><title>THU_Logo_Subline_deutsch_CMYK</title><path class="cls-1" d="M450.28,249.37a1.16,1.16,0,0,1-1.42-.84c-8.57-32-37-55.42-70.7-55.42a71.71,71.71,0,0,0-44.42,15.43,1.15,1.15,0,0,1-.81.25l-31.05-1.93a1.17,1.17,0,0,1-.82-1.91,84.49,84.49,0,0,1,65.39-31.26c42.71,0,78.12,32.2,84.63,74.33C451.23,249,450.72,249.26,450.28,249.37Zm-30.62-71.9c-24.14-35.14-70-48.79-108.49-30.26a84.55,84.55,0,0,0-45.37,56.53,1.18,1.18,0,0,0,1.58,1.38l28.81-11.74a1.14,1.14,0,0,0,.62-.57,71.7,71.7,0,0,1,33.32-33.18c30.39-14.63,66.16-5.82,87.75,19.25a1.14,1.14,0,0,0,1.64.14A1,1,0,0,0,419.66,177.47Zm-58.92-49.94c-37-21.18-84.25-13.57-110.88,19.82A84.49,84.49,0,0,0,233.52,218a1.19,1.19,0,0,0,2,.56l20.87-23.07a1.33,1.33,0,0,0,.31-.79,71.68,71.68,0,0,1,15.62-44.36c21-26.36,57.08-33.94,87.41-20.72a1.15,1.15,0,0,0,1.54-.58C361.49,128.58,361.57,128,360.74,127.53ZM286,108.1c-42.53-3-81.8,24.34-91.3,66a84.51,84.51,0,0,0,15.91,70.71,1.18,1.18,0,0,0,2.06-.38l8.79-29.84a1.21,1.21,0,0,0-.06-.85A71.62,71.62,0,0,1,216.23,167c7.5-32.88,36.7-55.35,69.76-56.6a1.16,1.16,0,0,0,1.13-1.19C287.12,108.73,286.94,108.17,286,108.1ZM210.21,123c-39.63,15.73-63.14,57.41-53.64,99.05a84.47,84.47,0,0,0,45,56.8,1.17,1.17,0,0,0,1.68-1.23l-5-30.7a1.24,1.24,0,0,0-.43-.74,71.57,71.57,0,0,1-24.93-39.86c-7.5-32.88,9-65.8,38.3-81.26a1.16,1.16,0,0,0,.5-1.57A1,1,0,0,0,210.21,123Zm-61.79,46.34c-28.89,31.36-32,79.12-5.36,112.51a84.53,84.53,0,0,0,65.21,31.64,1.19,1.19,0,0,0,1-1.85L191.41,286.2a1.23,1.23,0,0,0-.7-.48A71.62,71.62,0,0,1,151,260.62c-21-26.37-20.4-63.21-.75-89.83a1.17,1.17,0,0,0-.23-1.63A1,1,0,0,0,148.42,169.37Zm-35.58,68.55c-12.42,40.79,5.52,85.16,44,103.69a84.51,84.51,0,0,0,72.49.22,1.19,1.19,0,0,0,.09-2.1l-27.14-15.2a1.19,1.19,0,0,0-.84-.13A71.61,71.61,0,0,1,154.72,319c-30.39-14.63-45.8-48.09-39.66-80.6a1.16,1.16,0,0,0-.91-1.37C113.7,237,113.12,237,112.84,237.92Zm-2.3,77.2c6.51,42.14,41.92,74.34,84.63,74.34a84.49,84.49,0,0,0,65.39-31.26,1.18,1.18,0,0,0-.83-1.92l-31-1.93a1.28,1.28,0,0,0-.82.25A71.62,71.62,0,0,1,183.46,370c-33.73,0-62.13-23.46-70.7-55.41a1.18,1.18,0,0,0-1.42-.85C110.89,313.88,110.39,314.18,110.54,315.12ZM142,385.68c24.14,35.14,70,48.78,108.49,30.25a84.44,84.44,0,0,0,45.36-56.53,1.18,1.18,0,0,0-1.58-1.38l-28.81,11.74a1.26,1.26,0,0,0-.62.57,71.57,71.57,0,0,1-33.32,33.18c-30.38,14.63-66.16,5.82-87.74-19.25a1.17,1.17,0,0,0-1.65-.14A1,1,0,0,0,142,385.68Zm58.92,49.93c37,21.18,84.25,13.58,110.88-19.81a84.5,84.5,0,0,0,16.33-70.62,1.17,1.17,0,0,0-2-.55L305.22,367.7a1.23,1.23,0,0,0-.32.79,71.61,71.61,0,0,1-15.63,44.34c-21,26.37-57.08,34-87.41,20.73a1.17,1.17,0,0,0-1.54.59A1,1,0,0,0,200.88,435.61ZM275.63,455c42.52,3,81.79-24.33,91.3-66A84.49,84.49,0,0,0,351,318.37a1.18,1.18,0,0,0-2.06.37l-8.78,29.84a1.2,1.2,0,0,0,.05.85,71.63,71.63,0,0,1,5.17,46.73c-7.5,32.89-36.7,55.36-69.76,56.6a1.17,1.17,0,0,0-1.14,1.2C274.49,454.42,274.67,455,275.63,455Zm75.77-14.93C391,424.39,414.55,382.7,405,341.06a84.46,84.46,0,0,0-45-56.8,1.18,1.18,0,0,0-1.69,1.24l5,30.69a1.22,1.22,0,0,0,.42.74,71.59,71.59,0,0,1,24.93,39.86c7.5,32.88-9,65.8-38.29,81.26a1.18,1.18,0,0,0-.51,1.58A1,1,0,0,0,351.4,440.11Zm61.8-46.33c28.88-31.36,32-79.12,5.35-112.51a84.47,84.47,0,0,0-65.21-31.64,1.18,1.18,0,0,0-1,1.84l17.85,25.47a1.22,1.22,0,0,0,.69.49,71.59,71.59,0,0,1,39.76,25.1c21,26.36,20.4,63.21.76,89.83a1.16,1.16,0,0,0,.23,1.63A1,1,0,0,0,413.2,393.78Zm35.57-68.56c12.42-40.78-5.51-85.16-44-103.69a84.52,84.52,0,0,0-72.48-.21,1.18,1.18,0,0,0-.09,2.09l27.13,15.2a1.27,1.27,0,0,0,.85.14,71.5,71.5,0,0,1,46.7,5.36c30.39,14.63,45.81,48.1,39.66,80.61a1.17,1.17,0,0,0,.92,1.37C447.91,326.19,448.5,326.14,448.77,325.22Z" transform="translate(-108.94 -107.88)"/><path class="cls-2" d="M644,130.53h26.41V238.42H644V196.17H604.8v42.25H578.4V153.16H544.56v85.26h-26.4V153.16h-37.9V130.53H604.8v43.15H644Zm108.29,0v76.12c0,5.12-3.34,7.85-8.46,7.85H725.31c-5.12,0-8.46-2.73-8.46-7.85V130.53H690.41V211c0,17.86,11.67,27.39,29.53,27.39h29.3c17.86,0,29.52-9.53,29.52-27.39v-80.5Z" transform="translate(-108.94 -107.88)"/><path class="cls-2" d="M530.07,287.16v26.36h-7.15V287.16h-10V281.5H540.1v5.66Z" transform="translate(-108.94 -107.88)"/><path class="cls-2" d="M544.76,303.15c0,4.18,3.12,6.77,7.2,6.77a16.36,16.36,0,0,0,7.24-1.63l.29,4.46a27.65,27.65,0,0,1-8.88,1.3c-8.06,0-12.43-4.71-12.43-12.68,0-7.15,4.8-12.43,11.76-12.43,7.73,0,10.8,5.42,10.8,12.72v1.49ZM550,292.92c-3.7,0-5.23,3.85-5.23,6.68h9.93C554.69,296.57,553.64,292.92,550,292.92Z" transform="translate(-108.94 -107.88)"/><path class="cls-2" d="M578.55,314.05c-7.88,0-12.77-4.8-12.77-12.68s5.33-12.43,13-12.43a23.79,23.79,0,0,1,6.86,1l-.28,4.7a11.75,11.75,0,0,0-5-1.2c-4.75,0-7.49,3.32-7.49,7.92s2.6,8.16,7.35,8.16a11.35,11.35,0,0,0,5.18-1.2l.24,4.71A22.23,22.23,0,0,1,578.55,314.05Z" transform="translate(-108.94 -107.88)"/><path class="cls-2" d="M607.4,313.52V299.41c0-2.89-.48-5.72-4-5.72s-4.8,3.36-4.8,6.48v13.35h-6.62V278.91h6.62V293.4a7.74,7.74,0,0,1,7.4-4.46c5.66,0,8.06,3.46,8.06,8.93v15.65Z" transform="translate(-108.94 -107.88)"/><path class="cls-2" d="M637.39,313.52V299.45c0-2.88-.48-5.76-4-5.76-3.74,0-4.8,3.36-4.8,6.53v13.3h-6.62V294.8a51,51,0,0,0-.24-5.38h6.24l.09,4a8.43,8.43,0,0,1,7.83-4.51c5.81,0,8.16,3.46,8.16,9v15.6Z" transform="translate(-108.94 -107.88)"/><path class="cls-2" d="M651.94,285v-5.33h6.62V285Zm0,28.56v-24.1h6.62v24.1Z" transform="translate(-108.94 -107.88)"/><path class="cls-2" d="M673.15,314.05a27.09,27.09,0,0,1-8.06-1.2l.29-4.61a15.44,15.44,0,0,0,7,1.68c1.92,0,4.75-.77,4.75-3.07,0-4.9-12.15-2.93-12.15-10.76,0-5.42,5.81-7.2,10.23-7.2a25.18,25.18,0,0,1,7.1,1.11l-.29,4.27a17.93,17.93,0,0,0-6.38-1.25c-1.82,0-4.37.48-4.37,2.88,0,3.84,12.15,2.26,12.15,10.47C683.43,312,678,314.05,673.15,314.05Z" transform="translate(-108.94 -107.88)"/><path class="cls-2" d="M700.23,314.05c-7.88,0-12.77-4.8-12.77-12.68s5.32-12.43,13-12.43a23.84,23.84,0,0,1,6.86,1l-.29,4.7a11.67,11.67,0,0,0-4.94-1.2c-4.75,0-7.49,3.32-7.49,7.92s2.59,8.16,7.35,8.16a11.35,11.35,0,0,0,5.18-1.2l.24,4.71A22.23,22.23,0,0,1,700.23,314.05Z" transform="translate(-108.94 -107.88)"/><path class="cls-2" d="M728.11,313.52V299.41c0-2.89-.48-5.72-4-5.72s-4.8,3.36-4.8,6.48v13.35h-6.62V278.91h6.62V293.4a7.74,7.74,0,0,1,7.39-4.46c5.67,0,8.07,3.46,8.07,8.93v15.65Z" transform="translate(-108.94 -107.88)"/><path class="cls-2" d="M746.88,303.15c0,4.18,3.12,6.77,7.2,6.77a16.4,16.4,0,0,0,7.25-1.63l.29,4.46a27.65,27.65,0,0,1-8.88,1.3c-8.07,0-12.44-4.71-12.44-12.68,0-7.15,4.8-12.43,11.76-12.43,7.73,0,10.81,5.42,10.81,12.72v1.49Zm5.23-10.23c-3.69,0-5.23,3.85-5.23,6.68h9.94C756.82,296.57,755.76,292.92,752.11,292.92Z" transform="translate(-108.94 -107.88)"/><path class="cls-2" d="M537.65,362.23V348.7H524.93v13.53h-7.1v-32h7.1V343h12.72V330.22h7.11v32Z" transform="translate(-108.94 -107.88)"/><path class="cls-2" d="M563,362.76c-8,0-12.63-4.94-12.63-12.67s5.24-12.43,12.63-12.43c7.77,0,12.62,4.46,12.62,12.43C575.57,357.87,570.77,362.76,563,362.76Zm0-20.59c-4.18,0-5.52,4.27-5.52,7.92,0,4,1.39,8.16,5.52,8.16s5.52-4.13,5.52-8.16C568.47,346.39,567.27,342.17,563,342.17Z" transform="translate(-108.94 -107.88)"/><path class="cls-2" d="M592,362.76c-7.88,0-12.77-4.8-12.77-12.67s5.32-12.43,13-12.43a23.5,23.5,0,0,1,6.86,1l-.29,4.7a11.67,11.67,0,0,0-4.94-1.2c-4.75,0-7.49,3.31-7.49,7.92s2.59,8.16,7.35,8.16a11.35,11.35,0,0,0,5.18-1.2l.24,4.71A22.5,22.5,0,0,1,592,362.76Z" transform="translate(-108.94 -107.88)"/><path class="cls-2" d="M620.4,362.23V348.12c0-2.88-.48-5.71-4-5.71s-4.8,3.36-4.8,6.48v13.34H605V327.62h6.62v14.5a7.74,7.74,0,0,1,7.39-4.46c5.67,0,8.07,3.45,8.07,8.93v15.64Z" transform="translate(-108.94 -107.88)"/><path class="cls-2" d="M641.14,362.76a26.83,26.83,0,0,1-8.07-1.2l.29-4.61a15.32,15.32,0,0,0,7,1.68c1.92,0,4.75-.76,4.75-3.07,0-4.89-12.14-2.93-12.14-10.75,0-5.43,5.81-7.2,10.22-7.2a25.6,25.6,0,0,1,7.11,1.1L650,343a17.94,17.94,0,0,0-6.39-1.25c-1.82,0-4.36.48-4.36,2.88,0,3.84,12.14,2.25,12.14,10.46C651.41,360.7,646,362.76,641.14,362.76Z" transform="translate(-108.94 -107.88)"/><path class="cls-2" d="M668.69,362.76c-7.87,0-12.77-4.8-12.77-12.67s5.33-12.43,13-12.43a23.51,23.51,0,0,1,6.87,1l-.29,4.7a11.75,11.75,0,0,0-5-1.2c-4.75,0-7.48,3.31-7.48,7.92s2.59,8.16,7.34,8.16a11.4,11.4,0,0,0,5.19-1.2l.24,4.71A22.6,22.6,0,0,1,668.69,362.76Z" transform="translate(-108.94 -107.88)"/><path class="cls-2" d="M697.06,362.23V348.12c0-2.88-.48-5.71-4-5.71s-4.8,3.36-4.8,6.48v13.34H681.6V327.62h6.63v14.5a7.74,7.74,0,0,1,7.39-4.46c5.66,0,8.06,3.45,8.06,8.93v15.64Z" transform="translate(-108.94 -107.88)"/><path class="cls-2" d="M727.06,362.23l-.15-4a8.36,8.36,0,0,1-7.77,4.56c-5.81,0-8.11-3.55-8.11-9.07V338.14h6.62V352.2c0,2.88.43,5.76,4,5.76,3.75,0,4.8-3.41,4.8-6.57V338.14h6.63v18.67a51.6,51.6,0,0,0,.24,5.42Z" transform="translate(-108.94 -107.88)"/><path class="cls-2" d="M740.5,362.23V327.62h6.62v34.61Z" transform="translate(-108.94 -107.88)"/><path class="cls-2" d="M759.74,351.87c0,4.17,3.12,6.76,7.2,6.76a16.24,16.24,0,0,0,7.25-1.63l.29,4.47a27.64,27.64,0,0,1-8.88,1.29c-8.06,0-12.43-4.7-12.43-12.67,0-7.15,4.8-12.43,11.76-12.43,7.73,0,10.8,5.42,10.8,12.72v1.49ZM765,341.64c-3.7,0-5.24,3.84-5.24,6.67h9.94C769.68,345.29,768.62,341.64,765,341.64Z" transform="translate(-108.94 -107.88)"/><path class="cls-2" d="M530.93,412.05c-7.82,0-13.44-4-13.44-12.29V379.5h7.11v20c0,4.13,1.87,7.34,6.38,7.34s6.53-3.17,6.53-7.29V379.5h7.1v20C544.61,407.73,538.71,412.05,530.93,412.05Z" transform="translate(-108.94 -107.88)"/><path class="cls-2" d="M552.2,411.52V376.91h6.62v34.61Z" transform="translate(-108.94 -107.88)"/><path class="cls-2" d="M595.73,411.52v-15c0-2.54-.72-4.8-3.69-4.8-3.36,0-4.47,3.41-4.47,6.48v13.35H581v-15c0-2.54-.68-4.8-3.65-4.8-3.36,0-4.47,3.41-4.47,6.48v13.35h-6.62V392.8a51,51,0,0,0-.24-5.38h6.24l.09,4a8,8,0,0,1,7.59-4.51c3.65,0,6.29,2,7.15,4.75a8.06,8.06,0,0,1,7.44-4.75c5.72,0,7.83,3.7,7.83,9v15.6Z" transform="translate(-108.94 -107.88)"/></svg>